<svg version="1.1" id="Layer_1" xmlns="http://www.w3.org/2000/svg" xmlns:xlink="http://www.w3.org/1999/xlink" x="0px" y="0px" width="100%" viewBox="0 0 2001 1985" enable-background="new 0 0 2001 1985" xml:space="preserve">

<path fill="#3F58CF" opacity="1.000000" stroke="none" d="
M583.018616,1977.833618 
	C581.188904,1977.889160 579.359253,1977.992920 577.529541,1977.993042 
	C394.036926,1978.000366 210.544296,1978.000000 27.051676,1977.999390 
	C23.372629,1977.999390 19.622231,1978.413208 16.044458,1977.808960 
	C14.237490,1977.503662 11.721326,1975.598267 11.324330,1973.976318 
	C10.548605,1970.806763 11.005187,1967.328247 11.004632,1963.977661 
	C10.997592,1921.479370 10.695413,1878.977905 11.136295,1836.484253 
	C11.338348,1817.009644 12.782687,1797.535400 14.083100,1778.088989 
	C15.036397,1763.833374 16.405535,1749.591919 18.073599,1735.401245 
	C20.097591,1718.182861 22.439934,1700.995972 24.995455,1683.847656 
	C27.786339,1665.119873 30.655893,1646.392578 34.089737,1627.775513 
	C37.307243,1610.331055 40.925037,1592.939453 45.052399,1575.688599 
	C51.294193,1549.600098 57.493496,1523.470825 64.902405,1497.701416 
	C71.682594,1474.118774 79.540283,1450.809570 87.858322,1427.716675 
	C95.241226,1407.219849 103.293839,1386.911621 112.167091,1367.018066 
	C122.809464,1343.158325 133.988739,1319.488403 146.095932,1296.343140 
	C165.467133,1259.311523 186.464096,1223.174072 212.384720,1190.218628 
	C224.758591,1174.486450 237.432083,1158.946899 250.737015,1144.003174 
	C262.550812,1130.734009 274.880798,1117.817139 287.951172,1105.797607 
	C310.876740,1084.715088 334.837646,1064.771118 361.205658,1048.040039 
	C380.061249,1036.075684 399.124420,1024.401978 418.491699,1013.290161 
	C441.018585,1000.365479 465.142273,990.848511 489.512512,981.991089 
	C493.560669,980.519653 497.582001,978.974487 502.332947,977.194641 
	C495.384399,974.659180 488.949005,972.523926 482.679199,969.980591 
	C467.751099,963.924988 452.789459,957.931030 438.043396,951.452209 
	C408.498230,938.471252 381.012390,921.787231 354.754456,903.175720 
	C337.692413,891.082214 320.857758,878.549255 304.881927,865.074158 
	C287.583466,850.483521 270.883545,835.086304 254.897156,819.068176 
	C242.240952,806.386902 230.517258,792.665405 219.355942,778.629272 
	C205.124924,760.732910 191.134872,742.552429 178.410278,723.576172 
	C165.168335,703.828491 152.998337,683.299316 141.396698,662.532532 
	C130.570908,643.154358 120.312729,623.370850 111.248657,603.119507 
	C100.422035,578.930176 90.611458,554.248474 81.299461,529.427917 
	C68.380180,494.992310 58.084618,459.680908 49.575924,423.911926 
	C43.775875,399.529541 38.904938,374.917419 34.032745,350.325958 
	C30.357204,331.774414 27.006992,313.143738 24.133240,294.452759 
	C21.918444,280.047638 20.583876,265.503265 19.015245,251.003784 
	C17.567472,237.621445 16.123716,224.232864 15.052417,210.817139 
	C13.818896,195.369919 13.062459,179.885269 11.982683,164.425003 
	C8.386114,112.929138 10.614772,61.361797 10.033183,9.829258 
	C10.027991,9.369305 10.241712,8.906879 10.403679,8.236915 
	C201.403488,8.236915 392.335083,8.236915 584.000000,8.236915 
	C584.000000,9.955424 584.000000,11.707699 584.000000,13.459973 
	C584.000000,49.458527 583.918579,85.457375 584.046021,121.455475 
	C584.088257,133.389557 584.426025,145.334717 585.065674,157.251343 
	C585.789307,170.731979 586.520325,184.243896 588.116150,197.638779 
	C590.688660,219.230698 593.801025,240.763321 596.995911,262.274872 
	C601.692200,293.895508 609.293030,324.844482 618.652893,355.409088 
	C626.102234,379.734955 635.210938,403.360260 645.728149,426.519379 
	C656.699158,450.677887 669.479919,473.791199 684.896423,495.326385 
	C695.079834,509.551392 706.159790,523.162598 717.323547,536.646973 
	C723.654480,544.294067 730.857910,551.235779 737.854065,558.311584 
	C753.967590,574.608643 771.764893,588.888916 790.508728,602.041992 
	C809.917542,615.661621 830.268494,627.666504 851.516174,638.163208 
	C880.558472,652.510620 910.613708,664.030457 942.783752,668.927856 
	C958.164917,671.269470 973.707458,672.806763 989.234619,673.848572 
	C1000.716003,674.618896 1012.375244,674.881775 1023.803345,673.786133 
	C1039.720459,672.260071 1055.649414,669.991028 1071.297974,666.721985 
	C1100.318970,660.659180 1127.640137,649.569641 1153.909912,635.972046 
	C1180.647583,622.132263 1206.229248,606.373962 1229.345581,587.002502 
	C1242.998413,575.561584 1256.311890,563.650879 1269.076904,551.230957 
	C1286.783203,534.003235 1301.820801,514.456909 1315.967896,494.228302 
	C1332.213745,470.998718 1345.756226,446.203217 1357.648071,420.560883 
	C1371.704102,390.251648 1382.961792,358.854797 1390.984497,326.381592 
	C1395.509399,308.066040 1400.028564,289.729065 1403.739746,271.239075 
	C1406.501831,257.478424 1408.096924,243.474579 1409.964600,229.545914 
	C1411.793091,215.910019 1413.348145,202.236786 1414.938110,188.570023 
	C1415.432373,184.321564 1415.745972,180.045898 1415.971680,175.773682 
	C1416.381836,168.011169 1416.894043,160.243927 1416.962158,152.475143 
	C1417.372070,105.710854 1417.667114,58.945557 1418.005249,12.180632 
	C1418.011230,11.359299 1418.076660,10.538399 1418.130615,9.361150 
	C1609.272705,9.361150 1800.322266,9.361150 1992.000000,9.361150 
	C1992.000000,11.075202 1992.000000,12.841890 1992.000000,14.608579 
	C1992.000000,55.273613 1992.176636,95.939819 1991.908081,136.603073 
	C1991.808838,151.639923 1990.830444,166.679764 1989.941895,181.699860 
	C1989.193604,194.347015 1988.246094,206.993698 1986.932861,219.593292 
	C1985.200806,236.210663 1983.099243,252.791077 1981.018921,269.370087 
	C1979.104004,284.629974 1977.390747,299.930176 1974.894775,315.098450 
	C1971.586426,335.203949 1967.949097,355.270111 1963.813965,375.220642 
	C1959.588379,395.607910 1955.473267,416.089111 1949.726318,436.073792 
	C1940.653809,467.622711 1930.822144,498.983551 1920.219238,530.051147 
	C1913.502930,549.730957 1905.294189,568.951477 1896.856934,587.979919 
	C1888.317871,607.237976 1879.500366,626.463867 1869.307739,644.875061 
	C1855.735229,669.392212 1841.368408,693.531982 1826.111816,717.034790 
	C1813.772583,736.043518 1800.099854,754.252625 1786.098755,772.094604 
	C1775.834961,785.174133 1764.168945,797.164368 1752.957520,809.485046 
	C1746.149414,816.966919 1739.448120,824.633667 1731.943115,831.375916 
	C1714.929443,846.660156 1697.999268,862.128052 1680.006348,876.206238 
	C1661.000366,891.077148 1641.137207,904.928467 1621.033813,918.301025 
	C1597.365234,934.045044 1572.457153,947.724609 1546.040771,958.434021 
	C1529.623291,965.089722 1513.117676,971.527771 1497.139160,977.869995 
	C1506.927612,981.692200 1517.764038,985.288391 1528.048096,990.071960 
	C1549.329834,999.971008 1570.676514,1009.837830 1591.311157,1020.986511 
	C1607.337646,1029.645386 1622.707153,1039.679565 1637.668945,1050.106445 
	C1653.213501,1060.939697 1668.489624,1072.313843 1682.845825,1084.657593 
	C1701.397705,1100.608765 1719.407837,1117.268433 1736.723755,1134.552368 
	C1749.166504,1146.972412 1760.686646,1160.445923 1771.552612,1174.286133 
	C1787.487915,1194.583374 1803.171265,1215.153198 1817.647583,1236.498291 
	C1830.256226,1255.089844 1841.263672,1274.788574 1852.559326,1294.241577 
	C1860.017456,1307.085693 1867.257935,1320.109863 1873.660034,1333.500854 
	C1883.360229,1353.790283 1892.982544,1374.176025 1901.296509,1395.055054 
	C1912.240967,1422.540283 1922.651123,1450.292358 1931.861816,1478.398071 
	C1940.205933,1503.859009 1947.156616,1529.815674 1953.741699,1555.802124 
	C1959.216187,1577.406128 1963.706421,1599.288208 1967.821533,1621.199585 
	C1971.767944,1642.212036 1974.859619,1663.392822 1977.969849,1684.552002 
	C1980.278320,1700.257690 1982.201904,1716.026733 1983.952393,1731.805664 
	C1985.546143,1746.172485 1986.754639,1760.583984 1987.981689,1774.988770 
	C1988.792847,1784.508911 1989.600830,1794.042358 1989.947266,1803.586792 
	C1990.777344,1826.446899 1991.581177,1849.312988 1991.943848,1872.183838 
	C1992.492676,1906.779175 1992.658081,1941.380493 1992.973999,1975.979370 
	C1992.978394,1976.453247 1992.819092,1976.928711 1992.685303,1977.695435 
	C1801.613892,1977.695435 1610.564453,1977.695435 1419.000000,1977.695435 
	C1419.000000,1975.795410 1419.000000,1974.013428 1419.000000,1972.231323 
	C1419.000000,1940.565918 1419.241577,1908.898071 1418.914429,1877.235962 
	C1418.698853,1856.365112 1417.979248,1835.486450 1416.893799,1814.641968 
	C1416.081909,1799.050537 1414.737061,1783.459351 1412.903198,1767.954102 
	C1409.164185,1736.340332 1404.262085,1704.925171 1397.171509,1673.830933 
	C1389.160767,1638.701050 1379.325439,1604.184326 1365.369629,1570.948975 
	C1358.303467,1554.121094 1351.045654,1537.327026 1342.864380,1521.024658 
	C1329.151367,1493.700317 1312.630493,1468.018555 1294.092285,1443.716675 
	C1278.316895,1423.036743 1260.942505,1403.628784 1241.528931,1386.365601 
	C1225.513184,1372.124023 1208.609131,1358.744995 1191.171387,1346.281372 
	C1176.896240,1336.078369 1161.724609,1326.871826 1146.112427,1318.855469 
	C1119.792358,1305.341309 1091.890503,1295.750610 1062.569092,1291.101440 
	C1047.857300,1288.768799 1032.964600,1287.526001 1018.127197,1286.058716 
	C1011.228577,1285.376343 1004.235901,1284.745850 997.339172,1285.107910 
	C974.589905,1286.301758 951.944702,1288.241455 929.649475,1293.574097 
	C905.635132,1299.317871 882.469116,1307.128052 860.216187,1317.883667 
	C833.803406,1330.649780 808.879761,1345.761841 786.247437,1364.398682 
	C771.882080,1376.228149 757.914673,1388.587646 744.333313,1401.311890 
	C720.456421,1423.682617 700.747253,1449.549927 683.034912,1476.956421 
	C666.692505,1502.243042 653.305542,1529.044800 641.511658,1556.754639 
	C627.447449,1589.798584 616.787415,1623.925415 608.355957,1658.707031 
	C603.179688,1680.060547 599.682007,1701.847534 596.087585,1723.548828 
	C593.495056,1739.201172 591.768127,1755.009277 590.062073,1770.791870 
	C588.718750,1783.218994 587.749695,1795.699463 587.059387,1808.180908 
	C586.145752,1824.700073 585.308105,1841.238281 585.071533,1857.777344 
	C584.507568,1897.212280 584.315491,1936.652466 583.728027,1976.647461 
	C583.264465,1977.367310 583.109741,1977.577026 583.018616,1977.833618 
z" data-index="1" style="opacity: 1;"></path>
<path fill="#3F58CF" opacity="1.000000" stroke="none" d="
M583.270508,1977.858032 
	C583.109741,1977.577026 583.264465,1977.367310 583.658081,1977.112793 
	C583.729797,1977.308350 583.626099,1977.595459 583.270508,1977.858032 
z" data-index="2"></path>
</svg>